<?xml version="1.0" encoding="UTF-8"?>
<svg version="1.1" xmlns="http://www.w3.org/2000/svg" width="730" height="570">
<path d="M0 0 C240.9 0 481.8 0 730 0 C730 188.1 730 376.2 730 570 C489.1 570 248.2 570 0 570 C0 381.9 0 193.8 0 0 Z " fill="#000000" transform="translate(0,0)"/>
<path d="M0 0 C23.1 0 46.2 0 70 0 C70.268125 9.075 70.53625 18.15 70.8125 27.5 C70.93085205 30.33013672 71.0492041 33.16027344 71.17114258 36.07617188 C71.68800927 57.41840874 71.68800927 57.41840874 63.79296875 66.40625 C62.12588804 68.13658721 60.42206172 69.78971539 58.64909363 71.41105652 C55.94225931 74.01915995 53.75005839 76.99976331 51.5 80 C48.03289474 84.46020991 44.49306951 88.85369494 40.90698242 93.21875 C35.93230369 99.27623187 31.08366294 105.28712941 27 112 C31.30010275 108.31048585 35.51174451 104.53846667 39.65356445 100.67285156 C45.00990296 95.67517884 50.47043601 90.93069669 56.1875 86.34375 C59.98164129 83.18196559 63.56283765 79.81454636 67.16625977 76.43920898 C70.491548 73.34219916 73.88719939 70.40378316 77.4375 67.5625 C81.81251972 64.05356861 85.92020909 60.34155495 90 56.5 C94.91308115 51.8738141 99.95121721 47.52729313 105.22265625 43.30859375 C108.4244267 40.6472065 111.4623641 37.84539173 114.5 35 C118.37472764 31.37049392 122.28899743 27.88252041 126.4375 24.5625 C131.47099391 20.52245883 136.18685134 16.20584149 140.87866211 11.77954102 C141.96984006 10.75110939 143.07373195 9.73596704 144.19110107 8.73605347 C146.02251066 7.07004168 146.02251066 7.07004168 147.37568665 5.17921448 C150.49271355 1.5427586 153.41783952 -0.13013767 158.15641785 -0.61315918 C163.52123151 -0.90395112 168.88114042 -0.78744685 174.25 -0.68359375 C176.23395028 -0.67052533 178.21792328 -0.66056704 180.2019043 -0.65357971 C185.40402451 -0.62695208 190.60475959 -0.55827539 195.80633545 -0.48065186 C201.12200181 -0.40882814 206.43789371 -0.37702741 211.75390625 -0.34179688 C222.16987681 -0.26689927 232.58482288 -0.14754962 243 0 C243 0.99 243 1.98 243 3 C241.623325 3.92925562 240.23877939 4.84825114 238.82421875 5.71875 C236.73043701 7.18932904 235.08641197 8.84409457 233.3125 10.6875 C230.30143427 13.78410737 227.18383413 16.54999258 223.8125 19.25 C217.81816082 24.06865387 212.22228716 29.24831503 206.60986328 34.49902344 C204.08873178 36.84963255 201.54434587 39.17458133 199 41.5 C194.82369062 45.32294525 190.6584467 49.15763476 186.5 53 C181.85011419 57.29645031 177.18896933 61.58028402 172.51953125 65.85546875 C168.83790943 69.22787299 165.16703046 72.61174008 161.5 76 C154.85739742 82.13702617 148.19088341 88.24768628 141.52050781 94.35449219 C135.83677619 99.55864725 130.16047221 104.7705453 124.5 110 C115.89553832 117.94771088 107.27100112 125.8701236 98.5546875 133.6953125 C93.67405968 138.09832536 88.84007959 142.55252509 84 147 C77.54903192 152.92769564 71.08281284 158.8359372 64.5625 164.6875 C61.69399591 167.27615003 58.8452335 169.88585146 56 172.5 C51.54664513 176.59166107 47.06340146 180.64822946 42.5625 184.6875 C39.69399555 187.27615036 36.84527019 189.88589108 34 192.5 C27.79620455 198.19849108 21.53588635 203.83233006 15.26171875 209.453125 C14.37097656 210.25234375 13.48023438 211.0515625 12.5625 211.875 C11.75941406 212.59429687 10.95632812 213.31359375 10.12890625 214.0546875 C8.03253228 215.9224002 8.03253228 215.9224002 6.33984375 217.7578125 C5 219 5 219 3 219 C3 219.66 3 220.32 3 221 C2.01 221 1.02 221 0 221 C0 148.07 0 75.14 0 0 Z " fill="#26B1E5" transform="translate(244,101)"/>
<path d="M0 0 C1.16816974 1.40867527 2.33194137 2.82119542 3.47509766 4.25024414 C5.0455569 6.05227446 6.69254268 7.52372481 8.5234375 9.05859375 C14.76195371 14.4438153 20.44067787 20.39678516 26.22265625 26.26171875 C30.77201402 30.8508089 35.34531187 35.31800305 40.27734375 39.49609375 C42.10430507 41.09105998 43.80059287 42.77017842 45.5 44.5 C47.82311176 46.86230386 50.20244372 49.08631127 52.71484375 51.24609375 C56.93292986 54.91403683 61.00688523 58.71665019 65.0625 62.5625 C66.55706061 63.974203 68.05185688 65.38565653 69.546875 66.796875 C70.29130859 67.50005859 71.03574219 68.20324219 71.80273438 68.92773438 C89.40024729 85.67118489 89.40024729 85.67118489 107.671875 101.66015625 C109 103 109 103 109 105 C96.89080768 105.349328 84.78283509 105.61495076 72.66960907 105.77718258 C67.04305138 105.85509666 61.41996806 105.96054047 55.79541016 106.1315918 C50.35504209 106.29598416 44.91798853 106.38454202 39.47532654 106.42315865 C37.41145163 106.45063134 35.34773504 106.50428341 33.28529358 106.58595085 C22.90411798 106.98023234 15.06340671 106.88103162 6.99894714 99.75058079 C4.38691579 97.18035703 1.92045294 94.52364567 -0.47014427 91.74691963 C-2.4399366 89.4976429 -4.59282629 87.49544914 -6.81640625 85.5 C-7.45513672 84.90316406 -8.09386719 84.30632812 -8.75195312 83.69140625 C-9.99334634 82.53170126 -11.23557716 81.37289243 -12.47851562 80.21484375 C-15.53015923 77.36078858 -18.53308903 74.47734322 -21.46484375 71.5 C-24.48434452 68.45680028 -27.65433906 65.64348858 -30.8984375 62.84326172 C-34.69162105 59.51629427 -38.3372532 56.0316354 -42 52.5625 C-42.77472656 51.83095703 -43.54945313 51.09941406 -44.34765625 50.34570312 C-46.233003 48.56509786 -48.11709191 46.78318322 -50 45 C-48.90773595 41.72320785 -48.20070846 41.07691498 -45.625 38.9375 C-42.1862551 36.02257825 -38.82596216 33.04339434 -35.5 30 C-32.38092989 27.15475772 -29.25244609 24.3280042 -26.0625 21.5625 C-22.65310144 18.60115382 -19.32248276 15.55802447 -16 12.5 C-8.52297584 5.63423108 -8.52297584 5.63423108 -5.375 2.8125 C-4.45847656 1.98685547 -4.45847656 1.98685547 -3.5234375 1.14453125 C-2 0 -2 0 0 0 Z " fill="#24A9DF" transform="translate(374,220)"/>
<path d="M0 0 C8.12802326 -0.49356214 13.62447673 1.50578984 20.2109375 6.25390625 C22.7109375 8.75390625 22.7109375 8.75390625 24.2109375 11.25390625 C24.7884375 12.09953125 25.3659375 12.94515625 25.9609375 13.81640625 C28.46627777 20.706092 28.25939476 28.71637663 25.2421875 35.44921875 C21.52128548 41.96079729 16.40425847 46.84183886 9.2109375 49.25390625 C1.86034773 50.21030269 -6.24106667 50.08531673 -12.7890625 46.25390625 C-15.56202283 43.85581928 -17.68983183 41.25047645 -19.7890625 38.25390625 C-20.22476562 37.65707031 -20.66046875 37.06023437 -21.109375 36.4453125 C-24.88867447 30.30064728 -24.83435874 23.21988805 -23.7890625 16.25390625 C-22.3220956 12.68238614 -20.40535391 10.07233938 -17.7890625 7.25390625 C-17.23605469 6.64546875 -16.68304688 6.03703125 -16.11328125 5.41015625 C-11.12852652 0.55145278 -6.57656788 0.59870716 0 0 Z " fill="#F5F5F5" transform="translate(283.7890625,359.74609375)"/>
<path d="M0 0 C4.29 0 8.58 0 13 0 C15 2 15 2 15 6 C15.66 6 16.32 6 17 6 C18.25390625 7.390625 18.25390625 7.390625 19.5625 9.25 C20.21412109 10.15492188 20.21412109 10.15492188 20.87890625 11.078125 C22 13 22 13 22.33984375 14.984375 C23.05612855 17.79335037 23.05612855 17.79335037 28 21 C28 14.07 28 7.14 28 0 C37.27734375 -0.09765625 37.27734375 -0.09765625 40 0 C41 1 41 1 41.12025452 2.94252014 C41.11803391 3.79301437 41.11581329 4.64350861 41.11352539 5.51977539 C41.11344986 6.48069595 41.11337433 7.44161652 41.11329651 8.43165588 C41.10813522 9.476436 41.10297394 10.52121613 41.09765625 11.59765625 C41.0962413 12.66165146 41.09482635 13.72564667 41.09336853 14.82188416 C41.08775064 18.23545083 41.07519511 21.648953 41.0625 25.0625 C41.05748731 27.37044176 41.052924 29.67838455 41.04882812 31.98632812 C41.0377754 37.65757426 41.02101987 43.32878253 41 49 C36.83990291 49.64021272 33.13982192 49.85611414 29 49 C25.64889265 46.06222552 23.80046242 42.54275697 21.75 38.625 C21.18410156 37.64015625 20.61820312 36.6553125 20.03515625 35.640625 C16 28.5082665 16 28.5082665 16 26 C15.34 26 14.68 26 14 26 C13.67 33.92 13.34 41.84 13 50 C8.71 50 4.42 50 0 50 C0 33.5 0 17 0 0 Z " fill="#F4F4F4" transform="translate(397,359)"/>
<path d="M0 0 C1.6796875 1.29296875 1.6796875 1.29296875 4.1796875 3.79296875 C4.1796875 4.78296875 4.1796875 5.77296875 4.1796875 6.79296875 C1.01582934 9.14326338 -1.86819174 10.60477252 -5.8203125 10.79296875 C-7.50229388 10.01666965 -9.18387554 9.23941064 -10.859375 8.44921875 C-14.57526736 7.20565318 -18.12307656 7.64364072 -21.8203125 8.79296875 C-25.06075708 11.35832071 -26.51591417 12.87977375 -27.8203125 16.79296875 C-28.40883289 21.89347879 -27.84631068 25.38527368 -24.71484375 29.41015625 C-20.73710679 32.31349415 -15.5738618 32.00220338 -10.8203125 31.79296875 C-8.5574369 31.35288541 -8.5574369 31.35288541 -6.8203125 30.79296875 C-6.8203125 29.80296875 -6.8203125 28.81296875 -6.8203125 27.79296875 C-10.4503125 27.79296875 -14.0803125 27.79296875 -17.8203125 27.79296875 C-17.8203125 24.16296875 -17.8203125 20.53296875 -17.8203125 16.79296875 C-8.9103125 16.79296875 -0.0003125 16.79296875 9.1796875 16.79296875 C9.1796875 30.32760078 9.1796875 30.32760078 6.0546875 34.23046875 C5.09755859 35.43316406 5.09755859 35.43316406 4.12109375 36.66015625 C-0.51319081 41.75134211 -3.97608502 44.54678669 -10.9921875 44.99609375 C-25.97363602 45.19235727 -25.97363602 45.19235727 -32.5078125 39.41796875 C-33.2709375 38.55171875 -34.0340625 37.68546875 -34.8203125 36.79296875 C-35.7278125 35.90609375 -36.6353125 35.01921875 -37.5703125 34.10546875 C-41.47391889 30.09342885 -41.06898729 26.45402094 -41.1328125 21.10546875 C-41.16181641 20.31462891 -41.19082031 19.52378906 -41.22070312 18.70898438 C-41.29672596 11.62716535 -39.09882599 6.73267654 -34.1328125 1.54296875 C-25.19855708 -6.78972832 -9.85022757 -6.53158867 0 0 Z " fill="#F4F4F4" transform="translate(368.8203125,364.20703125)"/>
<path d="M0 0 C3.96 0 7.92 0 12 0 C13 1 13 1 13.09765625 4.16015625 C13.08605469 5.44792969 13.07445312 6.73570312 13.0625 8.0625 C13.05347656 9.35285156 13.04445312 10.64320313 13.03515625 11.97265625 C13.02355469 12.97167969 13.01195312 13.97070312 13 15 C13.66 15 14.32 15 15 15 C15.25523437 14.45859375 15.51046875 13.9171875 15.7734375 13.359375 C18.48535161 8.14282684 21.29693696 3.62387256 26 0 C31.24429586 -1.32814272 36.69361096 -0.64457977 42 0 C40.36049648 4.47339649 38.46133825 6.692499 35 10 C31.45200047 13.54799953 28.54297646 16.7251857 26.5625 21.375 C27.27300752 27.26206229 31.20643812 30.63835065 35 35 C36.52392675 36.96080288 38.02480073 38.93977935 39.5 40.9375 C40.1703125 41.83339844 40.840625 42.72929687 41.53125 43.65234375 C43 46 43 46 43 49 C38.16906198 49.68031702 33.80774778 49.93216606 29 49 C25.14995836 45.84853345 22.60648269 42.20812976 20 38 C19.34 37.01 18.68 36.02 18 35 C15.24358584 35.49756092 15.24358584 35.49756092 13 37 C12.76572222 39.01594582 12.58663876 41.038474 12.4375 43.0625 C12.293125 45.021875 12.14875 46.98125 12 49 C8.04 49 4.08 49 0 49 C0 32.83 0 16.66 0 0 Z " fill="#F7F7F7" transform="translate(207,359)"/>
<path d="M0 0 C12.21 0 24.42 0 37 0 C37 3.96 37 7.92 37 12 C33.04 12 29.08 12 25 12 C25 24.54 25 37.08 25 50 C20.71 50 16.42 50 12 50 C12 37.79 12 25.58 12 13 C8.04 13 4.08 13 0 13 C0 8.71 0 4.42 0 0 Z " fill="#E7E7E7" transform="translate(491,359)"/>
<path d="M0 0 C1.22809298 1.4272432 2.45048041 2.86038617 3.625 4.33203125 C5.59722375 6.72447313 7.77711619 8.84062716 10 11 C9.25596924 11.25885986 8.51193848 11.51771973 7.74536133 11.78442383 C4.91491906 13.03767168 3.28372802 14.30866029 1.07421875 16.44921875 C0.35943359 17.13306641 -0.35535156 17.81691406 -1.09179688 18.52148438 C-2.19104492 19.59366211 -2.19104492 19.59366211 -3.3125 20.6875 C-4.76558002 22.08863793 -6.22000112 23.48838644 -7.67578125 24.88671875 C-8.39483643 25.57765625 -9.1138916 26.26859375 -9.85473633 26.98046875 C-12.53225502 29.50105992 -15.2931439 31.91267642 -18.07348633 34.31860352 C-21.17169006 37.02261177 -24.17947045 39.82152987 -27.1875 42.625 C-27.77724609 43.1715625 -28.36699219 43.718125 -28.97460938 44.28125 C-32.38743063 47.45490803 -35.72621599 50.68305876 -39 54 C-42.21524305 52.59155282 -44.32183868 50.89655214 -46.75 48.375 C-47.36359375 47.74335938 -47.9771875 47.11171875 -48.609375 46.4609375 C-49.06828125 45.97882813 -49.5271875 45.49671875 -50 45 C-48.90773595 41.72320785 -48.20070846 41.07691498 -45.625 38.9375 C-42.1862551 36.02257825 -38.82596216 33.04339434 -35.5 30 C-32.38092989 27.15475772 -29.25244609 24.3280042 -26.0625 21.5625 C-22.65310144 18.60115382 -19.32248276 15.55802447 -16 12.5 C-8.52297584 5.63423108 -8.52297584 5.63423108 -5.375 2.8125 C-4.45847656 1.98685547 -4.45847656 1.98685547 -3.5234375 1.14453125 C-2 0 -2 0 0 0 Z " fill="#0D6FB3" transform="translate(374,220)"/>
<path d="M0 0 C2.66796875 0.41796875 2.66796875 0.41796875 5.73046875 2.60546875 C9.94961521 8.73003619 10.30818046 14.1520739 9.66796875 21.41796875 C8.82576244 25.74223814 7.65190616 28.66830215 4.04296875 31.41796875 C-0.20933496 32.67791059 -3.97994868 33.69233547 -8.33203125 32.41796875 C-13.15976339 27.59023661 -14.47091761 21.65423049 -14.58203125 15.04296875 C-14.53136415 9.6143514 -13.43337087 6.10768346 -10.0625 1.79296875 C-7.01957556 -0.62488544 -3.73927155 -0.10373144 0 0 Z " fill="#010608" transform="translate(469.33203125,429.58203125)"/>
<path d="M0 0 C3.96 0 7.92 0 12 0 C12 16.17 12 32.34 12 49 C8.04 49 4.08 49 0 49 C0 32.83 0 16.66 0 0 Z " fill="#F4F4F4" transform="translate(460,359)"/>
<path d="M0 0 C3.28882169 1.74190556 6.31116727 3.62233453 8 7 C8.51037087 11.05380289 8.89274541 15.1774658 7.05859375 18.921875 C4.5143895 22.14400202 2.00389364 24.18102176 -2 25 C-6.60761947 25.05885645 -10.02211182 24.59080744 -14 22.1875 C-17.52787133 18.32889074 -17.51073189 13.48790798 -17.48828125 8.4140625 C-16.8914589 5.46337282 -16.10140754 4.67551343 -13.6875 2.9375 C-9.15141676 0.26530002 -5.26745317 -0.52674532 0 0 Z " fill="#080808" transform="translate(290,372)"/>
<path d="M0 0 C3.63371088 1.51955182 4.81309082 1.71094106 8.4375 0.4375 C10.67158113 -0.55333967 10.67158113 -0.55333967 12.4375 -1.5625 C10.625 0.9375 10.625 0.9375 8.4375 3.4375 C7.4475 3.4375 6.4575 3.4375 5.4375 3.4375 C5.4375 4.0975 5.4375 4.7575 5.4375 5.4375 C9.7275 5.7675 14.0175 6.0975 18.4375 6.4375 C18.4375 7.0975 18.4375 7.7575 18.4375 8.4375 C9.5275 8.4375 0.6175 8.4375 -8.5625 8.4375 C-8.5625 12.0675 -8.5625 15.6975 -8.5625 19.4375 C-4.9325 19.4375 -1.3025 19.4375 2.4375 19.4375 C2.4375 20.4275 2.4375 21.4175 2.4375 22.4375 C-1.90671871 25.0772884 -5.70100938 24.74081933 -10.6328125 24.234375 C-14.78996396 23.1036298 -16.44310185 21.24610935 -18.63671875 17.62890625 C-20.03095835 14.32861757 -20.16006207 11.95647662 -19.5625 8.4375 C-17.85604499 4.76862173 -15.60164665 2.09675332 -12.5625 -0.5625 C-7.77267147 -2.15910951 -4.65635953 -2.04226295 0 0 Z " fill="#1D1D1D" transform="translate(359.5625,372.5625)"/>
<path d="M0 0 C0.99 0 1.98 0 3 0 C3.25 2.8125 3.25 2.8125 3 6 C1.0625 7.6875 1.0625 7.6875 -1 9 C-1.33 9.99 -1.66 10.98 -2 12 C-1.278125 12.2475 -0.55625 12.495 0.1875 12.75 C3.44490074 14.19773366 5.57122823 15.36304779 8 18 C8.52532033 22.72788298 8.56816364 26.84202078 6 31 C1.99334914 33.75457247 -2.18537406 32.95411479 -6.79296875 32.484375 C-9 32 -9 32 -11 30 C-12.36634627 25.66569628 -12.95792935 21.47033695 -12 17 C-9.68832594 13.03556135 -6.8703469 9.57002839 -4 6 C-3.21093741 4.78245536 -2.4352617 3.55583711 -1.6875 2.3125 C-1.130625 1.549375 -0.57375 0.78625 0 0 Z " fill="#26A6D1" transform="translate(555,429)"/>
<path d="M0 0 C4.16240034 1.04060009 4.52494026 1.15919247 6.83984375 4.3515625 C7.34580078 5.03863281 7.85175781 5.72570312 8.37304688 6.43359375 C8.88931641 7.15675781 9.40558594 7.87992187 9.9375 8.625 C10.44990234 9.32496094 10.96230469 10.02492188 11.49023438 10.74609375 C12.50892238 12.14145038 13.52122888 13.54148995 14.52685547 14.94628906 C15.50502552 16.30995603 16.49360772 17.66621703 17.49267578 19.01464844 C21 23.78085373 21 23.78085373 21 26 C21.66 26 22.32 26 23 26 C23 17.42 23 8.84 23 0 C23.99 0 24.98 0 26 0 C26 10.89 26 21.78 26 33 C21.22003111 31.80500778 19.91762721 29.78396267 17.1875 26 C16.30900319 24.81610232 15.4300945 23.63251017 14.55078125 22.44921875 C14.12104004 21.86446777 13.69129883 21.2797168 13.24853516 20.67724609 C10.97478501 17.62275577 8.56752709 14.67257396 6.1796875 11.70703125 C5 10 5 10 5 8 C4.34 8 3.68 8 3 8 C3 16.25 3 24.5 3 33 C2.01 33 1.02 33 0 33 C0 22.11 0 11.22 0 0 Z " fill="#25A1CA" transform="translate(244,429)"/>
<path d="M0 0 C2.66796875 0.41796875 2.66796875 0.41796875 5.73046875 2.60546875 C9.94961521 8.73003619 10.30818046 14.1520739 9.66796875 21.41796875 C8.82576244 25.74223814 7.65190616 28.66830215 4.04296875 31.41796875 C-0.20933496 32.67791059 -3.97994868 33.69233547 -8.33203125 32.41796875 C-13.15976339 27.59023661 -14.47091761 21.65423049 -14.58203125 15.04296875 C-14.53136415 9.6143514 -13.43337087 6.10768346 -10.0625 1.79296875 C-7.01957556 -0.62488544 -3.73927155 -0.10373144 0 0 Z M-8.20703125 4.73046875 C-11.7493682 10.04397417 -10.94999352 17.33778828 -10.33203125 23.41796875 C-8.55461838 26.95127899 -8.55461838 26.95127899 -5.33203125 28.41796875 C-1.78881572 29.33477095 -1.78881572 29.33477095 1.66796875 28.41796875 C4.97227622 25.45256461 5.54511644 23.67292846 5.9765625 19.265625 C6.30452991 11.99222261 6.30452991 11.99222261 3.66796875 5.41796875 C-0.13620459 2.88185319 -4.22109465 1.94031313 -8.20703125 4.73046875 Z " fill="#249AC2" transform="translate(469.33203125,429.58203125)"/>
<path d="M0 0 C2.9375 1.25 2.9375 1.25 5 3 C5 4.32 5 5.64 5 7 C4.505 6.835 4.01 6.67 3.5 6.5 C-0.03444089 5.79311182 -3.39690701 5.93994845 -7 6 C-7 7.65 -7 9.3 -7 11 C-6.32453125 11.24234375 -5.6490625 11.4846875 -4.953125 11.734375 C4.87567894 15.42727821 4.87567894 15.42727821 7 19 C7.65482757 23.1677849 7.65229694 26.69540613 5.75 30.5 C2.19106133 33.55051886 -2.37889661 33.27795523 -6.87109375 33.21875 C-9.7294606 32.92504625 -11.17225334 32.22508289 -13 30 C-13 28.68 -13 27.36 -13 26 C-12.44699219 26.16242188 -11.89398438 26.32484375 -11.32421875 26.4921875 C-8.7582996 27.05280849 -6.43700323 27.13275333 -3.8125 27.125 C-2.93207031 27.12757813 -2.05164063 27.13015625 -1.14453125 27.1328125 C0.98203191 27.23865033 0.98203191 27.23865033 2 26 C2 24.02 2 22.04 2 20 C-2.62 17.69 -7.24 15.38 -12 13 C-12.60356653 5.87791495 -12.60356653 5.87791495 -9.9375 2 C-6.25125882 -0.50978123 -4.38261849 -0.62608836 0 0 Z " fill="#2190B5" transform="translate(181,429)"/>
<path d="M0 0 C6.6 0 13.2 0 20 0 C20 1.32 20 2.64 20 4 C14.39 4 8.78 4 3 4 C3 7.63 3 11.26 3 15 C7.62 15 12.24 15 17 15 C17 15.99 17 16.98 17 18 C12.38 18 7.76 18 3 18 C3 21.96 3 25.92 3 30 C8.94 30 14.88 30 21 30 C21 30.99 21 31.98 21 33 C14.07 33 7.14 33 0 33 C0 22.11 0 11.22 0 0 Z " fill="#26A4CE" transform="translate(342,429)"/>
<path d="M0 0 C0.845625 0.495 1.69125 0.99 2.5625 1.5 C2.5625 2.49 2.5625 3.48 2.5625 4.5 C1.94375 4.335 1.325 4.17 0.6875 4 C-3.72982588 3.29322786 -7.98915958 2.83530545 -12.4375 3.5 C-15.78375024 6.02676039 -17.11727847 7.53933542 -18.4375 11.5 C-18.99508557 17.07585573 -18.71018879 20.69360085 -15.125 25.14453125 C-11.92062019 27.71841966 -8.42579103 27.90797333 -4.4375 27.5 C-1.13648869 26.10075055 -1.13648869 26.10075055 1.5625 24.5 C2.5525 24.83 3.5425 25.16 4.5625 25.5 C3.5625 28.5 3.5625 28.5 1.3125 30.25 C-4.4077216 32.15674053 -9.61461893 32.06241281 -15.4375 30.5 C-19.7016813 27.39877724 -22.50521861 23.73113444 -23.4375 18.5 C-24.02096093 12.66539066 -23.43528047 9.11687141 -20.0546875 4.265625 C-14.62817715 -1.65897084 -7.36302302 -3.2129555 0 0 Z " fill="#239AC2" transform="translate(315.4375,430.5)"/>
<path d="M0 0 C3.4375 2 3.4375 2 6 5 C6.80386828 8.16953778 6.76336548 10.82416651 6 14 C4 16.5625 4 16.5625 1 19 C-0.43027682 20.38188399 -1.84623844 21.77868894 -3.25 23.1875 C-3.93578125 23.86167969 -4.6215625 24.53585937 -5.328125 25.23046875 C-7.07449111 26.90798995 -7.07449111 26.90798995 -8 29 C-3.38 29 1.24 29 6 29 C6 29.99 6 30.98 6 32 C-0.93 32 -7.86 32 -15 32 C-14.0324613 28.12984521 -13.76214694 27.38729471 -11.12890625 24.80078125 C-10.55462891 24.23166016 -9.98035156 23.66253906 -9.38867188 23.07617188 C-8.78603516 22.49416016 -8.18339844 21.91214844 -7.5625 21.3125 C-6.96373047 20.71888672 -6.36496094 20.12527344 -5.74804688 19.51367188 C-1.30970528 15.15485264 -1.30970528 15.15485264 1 14 C1.04125 12.72125 1.0825 11.4425 1.125 10.125 C1.14820313 9.40570313 1.17140625 8.68640625 1.1953125 7.9453125 C1.18331689 5.76136355 1.18331689 5.76136355 -1 4 C-4.5 3.66666667 -4.5 3.66666667 -8 4 C-8.66 4.66 -9.32 5.32 -10 6 C-10.99 6 -11.98 6 -13 6 C-12.69542509 3.05577584 -12.16507321 2.14079774 -9.875 0.1875 C-6.03055389 -1.40042339 -3.99237044 -1.12066539 0 0 Z " fill="#259FC8" transform="translate(515,430)"/>
<path d="M0 0 C3.81407532 2.62217678 4.80597031 4.18230345 5.875 8.6875 C5.51148599 14.89069068 0.12204752 18.86416637 -4 23 C-5.71062277 24.96838784 -7.35140334 26.97913958 -9 29 C-4.38 29 0.24 29 5 29 C5 29.99 5 30.98 5 32 C-1.6 32 -8.2 32 -15 32 C-13.87832544 26.39162721 -13.87832544 26.39162721 -10.875 23.73046875 C-10.25109375 23.15103516 -9.6271875 22.57160156 -8.984375 21.97460938 C-7.66726984 20.78843691 -6.34437219 19.60866324 -5.015625 18.43554688 C-1.66865057 15.30640239 0.35520091 13.20609844 0.9375 8.55078125 C0.9684375 6.79314453 0.9684375 6.79314453 1 5 C-3.25800538 3.58066487 -7.22911538 3.27348323 -11.4375 5 C-11.953125 5.33 -12.46875 5.66 -13 6 C-12.52204176 1.45939675 -12.52204176 1.45939675 -10.4375 -0.375 C-6.79598888 -1.3087208 -3.55643942 -1.07045305 0 0 Z " fill="#2398BF" transform="translate(428,430)"/>
<path d="M0 0 C0.86894394 -0.00087616 1.73788788 -0.00175232 2.63316345 -0.00265503 C5.49091072 0.00150842 8.34627874 0.04809996 11.20361328 0.09521484 C13.19042682 0.10641144 15.17725697 0.11494944 17.16409302 0.12094116 C22.38250816 0.1438029 27.59991442 0.20270365 32.81793213 0.26916504 C38.14687452 0.33064464 43.47598063 0.35796832 48.80517578 0.38818359 C59.25353467 0.45244913 69.70114619 0.5547968 80.14892578 0.68115234 C80.14892578 1.67115234 80.14892578 2.66115234 80.14892578 3.68115234 C78.7767303 4.6073843 77.39652506 5.52329222 75.98486328 6.38818359 C73.82053194 7.91242545 72.1104555 9.65066203 70.27392578 11.55615234 C66.53580734 15.4097339 62.5364967 18.60051744 58.14892578 21.68115234 C59.77373837 17.24498638 63.20792546 14.66031748 66.64892578 11.61865234 C67.82861772 10.56818914 69.00580244 9.51490191 70.18017578 8.45849609 C70.96231445 7.76614868 70.96231445 7.76614868 71.76025391 7.05981445 C73.3944708 5.529135 73.3944708 5.529135 75.14892578 2.68115234 C64.26556324 2.71917594 53.38254558 2.77848898 42.4994545 2.86505508 C37.44607485 2.90458005 32.39287077 2.93674387 27.33935547 2.95214844 C22.46324574 2.96728201 17.58761852 3.00166863 12.71172333 3.04946136 C10.85062603 3.06430929 8.98945986 3.07219531 7.12830353 3.07303619 C4.52299943 3.07539739 1.91903801 3.1024073 -0.68603516 3.13525391 C-1.45711609 3.13022354 -2.22819702 3.12519318 -3.02264404 3.12001038 C-6.65285061 3.19091766 -8.49623772 3.39362685 -11.36138916 5.715271 C-11.85298523 6.36401184 -12.3445813 7.01275269 -12.85107422 7.68115234 C-13.51107422 7.35115234 -14.17107422 7.02115234 -14.85107422 6.68115234 C-10.12245916 0.96573075 -7.30584938 -0.19441241 0 0 Z " fill="#156A93" transform="translate(406.85107421875,100.31884765625)"/>
<path d="M0 0 C3.63 0 7.26 0 11 0 C11.33 1.32 11.66 2.64 12 4 C10.68 4 9.36 4 8 4 C8 12.58 8 21.16 8 30 C9.32 30 10.64 30 12 30 C12 30.99 12 31.98 12 33 C8.04 33 4.08 33 0 33 C0 32.01 0 31.02 0 30 C1.32 30 2.64 30 4 30 C4 21.42 4 12.84 4 4 C2.68 4 1.36 4 0 4 C0 2.68 0 1.36 0 0 Z " fill="#1F87A9" transform="translate(210,429)"/>
<path d="M0 0 C9.27734375 -0.09765625 9.27734375 -0.09765625 12 0 C13 1 13 1 13.12025452 2.94252014 C13.1169236 4.21826149 13.1169236 4.21826149 13.11352539 5.51977539 C13.11344986 6.48069595 13.11337433 7.44161652 13.11329651 8.43165588 C13.10813522 9.476436 13.10297394 10.52121613 13.09765625 11.59765625 C13.0962413 12.66165146 13.09482635 13.72564667 13.09336853 14.82188416 C13.08775064 18.23545083 13.07519511 21.648953 13.0625 25.0625 C13.05748731 27.37044176 13.052924 29.67838455 13.04882812 31.98632812 C13.03777539 37.65757711 13.02049877 43.3287776 13 49 C9.04 49 5.08 49 1 49 C0.505 47.515 0.505 47.515 0 46 C0.66 46 1.32 46 2 46 C2 46.66 2 47.32 2 48 C4.97 48 7.94 48 11 48 C11 32.49 11 16.98 11 1 C7.7 1 4.4 1 1 1 C1 8.59 1 16.18 1 24 C-0.32 23.34 -1.64 22.68 -3 22 C-2.67 21.34 -2.34 20.68 -2 20 C-1.34 20.33 -0.68 20.66 0 21 C0 14.07 0 7.14 0 0 Z " fill="#B7B7B7" transform="translate(425,359)"/>
<path d="M0 0 C6.3782235 -0.48137536 6.3782235 -0.48137536 8.9375 1.5 C10.47684003 5.12197655 10.19601854 8.07962923 10 12 C7.34271875 13.73745313 6.10399645 14.00831972 2.875 13.75 C0 13 0 13 -2 11 C-2.31404687 6.76036719 -2.32617985 3.63465602 0 0 Z " fill="#030D11" transform="translate(549,445)"/>
<path d="M0 0 C4.07251368 0.07462721 5.34515705 0.19296932 8.75 2.625 C11.90036174 7.19810575 12.94624176 10.69971707 12.8125 16.25 C12.79445313 17.22582031 12.77640625 18.20164062 12.7578125 19.20703125 C12.73460937 19.94308594 12.71140625 20.67914063 12.6875 21.4375 C12.3575 21.4375 12.0275 21.4375 11.6875 21.4375 C11.6875 18.1375 11.6875 14.8375 11.6875 11.4375 C11.0275 11.4375 10.3675 11.4375 9.6875 11.4375 C9.6875 14.0775 9.6875 16.7175 9.6875 19.4375 C9.3575 19.4375 9.0275 19.4375 8.6875 19.4375 C8.62691406 18.76203125 8.56632812 18.0865625 8.50390625 17.390625 C8.37822266 16.05257813 8.37822266 16.05257813 8.25 14.6875 C8.16878906 13.80578125 8.08757812 12.9240625 8.00390625 12.015625 C7.61418305 8.66097104 7.61418305 8.66097104 6.6875 5.4375 C3.07826038 4.23442013 0.47363423 4.03184276 -3.3125 4.4375 C-7.507277 8.4924511 -7.03291205 14.93250965 -7.3125 20.4375 C-7.6425 20.4375 -7.9725 20.4375 -8.3125 20.4375 C-8.37308594 19.66664063 -8.43367188 18.89578125 -8.49609375 18.1015625 C-8.57988281 17.09867187 -8.66367187 16.09578125 -8.75 15.0625 C-8.83121094 14.06476563 -8.91242188 13.06703125 -8.99609375 12.0390625 C-9.16215626 9.45822387 -9.16215626 9.45822387 -10.3125 7.4375 C-7.56802265 2.2099241 -5.99070498 0.13781053 0 0 Z " fill="#2190B5" transform="translate(466.3125,429.5625)"/>
<path d="M0 0 C6.6 0 13.2 0 20 0 C20 1.32 20 2.64 20 4 C14.39 4 8.78 4 3 4 C3 7.63 3 11.26 3 15 C2.01 15 1.02 15 0 15 C0 10.05 0 5.1 0 0 Z " fill="#29B3E0" transform="translate(342,429)"/>
<path d="M0 0 C0.845625 0.495 1.69125 0.99 2.5625 1.5 C2.5625 2.49 2.5625 3.48 2.5625 4.5 C1.94375 4.335 1.325 4.17 0.6875 4 C-3.72982588 3.29322786 -7.98915958 2.83530545 -12.4375 3.5 C-15.78375024 6.02676039 -17.11727847 7.53933542 -18.4375 11.5 C-19.4275 11.83 -20.4175 12.16 -21.4375 12.5 C-21.7675 14.48 -22.0975 16.46 -22.4375 18.5 C-22.7675 18.5 -23.0975 18.5 -23.4375 18.5 C-23.95627496 12.68972045 -23.42180709 9.09753673 -20.0546875 4.265625 C-14.62817715 -1.65897084 -7.36302302 -3.2129555 0 0 Z " fill="#208AAE" transform="translate(315.4375,430.5)"/>
<path d="M0 0 C0.66 0.33 1.32 0.66 2 1 C2.46551724 9.06896552 2.46551724 9.06896552 0.75 12.5 C-2.80893867 15.55051886 -7.37889661 15.27795523 -11.87109375 15.21875 C-14.7294606 14.92504625 -16.17225334 14.22508289 -18 12 C-18 10.68 -18 9.36 -18 8 C-17.44828125 8.16371094 -16.8965625 8.32742188 -16.328125 8.49609375 C-13.73385993 9.05760414 -11.40164589 9.09739008 -8.75 9.0625 C-7.41195312 9.04896484 -7.41195312 9.04896484 -6.046875 9.03515625 C-5.37140625 9.02355469 -4.6959375 9.01195312 -4 9 C-3.34 7.02 -2.68 5.04 -2 3 C-1.67 3 -1.34 3 -1 3 C-1 4.65 -1 6.3 -1 8 C-0.34 8 0.32 8 1 8 C0.67 5.36 0.34 2.72 0 0 Z " fill="#176680" transform="translate(186,447)"/>
<path d="M0 0 C3.96 0 7.92 0 12 0 C13 1 13 1 13.09765625 4.16015625 C13.08605469 5.44792969 13.07445312 6.73570312 13.0625 8.0625 C13.05347656 9.35285156 13.04445312 10.64320313 13.03515625 11.97265625 C13.02355469 12.97167969 13.01195312 13.97070312 13 15 C13.66 15 14.32 15 15 15 C15 15.99 15 16.98 15 18 C13.68 18 12.36 18 11 18 C11 12.39 11 6.78 11 1 C7.7 1 4.4 1 1 1 C1 16.84 1 32.68 1 49 C0.67 49 0.34 49 0 49 C0 32.83 0 16.66 0 0 Z " fill="#B3B3B3" transform="translate(207,359)"/>
<path d="M0 0 C1 2 1 2 0.875 5.5 C0.91625 6.655 0.9575 7.81 1 9 C4.8503105 11.56687367 6.58569763 10.83288724 11 10 C11 6.7 11 3.4 11 0 C11.66 0.33 12.32 0.66 13 1 C13 3.97 13 6.94 13 10 C13.66 10 14.32 10 15 10 C14 13 14 13 12.0625 14.25 C7.65676977 15.32895434 3.42182527 14.97045369 -1 14 C-3 12 -3 12 -3.046875 9.94140625 C-2.89992188 8.76384766 -2.89992188 8.76384766 -2.75 7.5625 C-2.66234375 6.78003906 -2.5746875 5.99757813 -2.484375 5.19140625 C-2 3 -2 3 0 0 Z " fill="#26A5CF" transform="translate(547,447)"/>
<path d="M0 0 C2.9375 1.25 2.9375 1.25 5 3 C5 4.32 5 5.64 5 7 C4.505 6.835 4.01 6.67 3.5 6.5 C-0.03444089 5.79311182 -3.39690701 5.93994845 -7 6 C-7 7.98 -7 9.96 -7 12 C-7.66 12 -8.32 12 -9 12 C-9.33 10.02 -9.66 8.04 -10 6 C-10 8.64 -10 11.28 -10 14 C-10.66 13.67 -11.32 13.34 -12 13 C-12.60356653 5.87791495 -12.60356653 5.87791495 -9.9375 2 C-6.25125882 -0.50978123 -4.38261849 -0.62608836 0 0 Z " fill="#1C7B9B" transform="translate(181,429)"/>
<path d="M0 0 C3.4375 2 3.4375 2 6 5 C6.48807566 8.0671702 6.36190236 10.92382995 6 14 C5.67 14 5.34 14 5 14 C5 11.36 5 8.72 5 6 C4.34 6 3.68 6 3 6 C3 7.65 3 9.3 3 11 C2.67 11 2.34 11 2 11 C1.5359375 9.5459375 1.5359375 9.5459375 1.0625 8.0625 C0.30476658 5.15934208 0.30476658 5.15934208 -1 4 C-4.45821402 3.74996036 -4.45821402 3.74996036 -8 4 C-8.66 4.66 -9.32 5.32 -10 6 C-10.99 6 -11.98 6 -13 6 C-12.69542509 3.05577584 -12.16507321 2.14079774 -9.875 0.1875 C-6.03055389 -1.40042339 -3.99237044 -1.12066539 0 0 Z " fill="#1E84A5" transform="translate(515,430)"/>
<path d="M0 0 C3 2.0625 3 2.0625 5 5 C5.40020958 7.80666457 5.24217876 10.14229065 5 13 C4.67 13 4.34 13 4 13 C3.87625 12.195625 3.7525 11.39125 3.625 10.5625 C3.41875 9.716875 3.2125 8.87125 3 8 C2.34 7.67 1.68 7.34 1 7 C1 6.34 1 5.68 1 5 C-3.25800538 3.58066487 -7.22911538 3.27348323 -11.4375 5 C-11.953125 5.33 -12.46875 5.66 -13 6 C-12.52204176 1.45939675 -12.52204176 1.45939675 -10.4375 -0.375 C-6.79598888 -1.3087208 -3.55643942 -1.07045305 0 0 Z " fill="#2293B8" transform="translate(428,430)"/>
<path d="M0 0 C0.99 0 1.98 0 3 0 C3.25 2.8125 3.25 2.8125 3 6 C1.0625 7.6875 1.0625 7.6875 -1 9 C-1.33 9.99 -1.66 10.98 -2 12 C-1.34 12.33 -0.68 12.66 0 13 C-0.556875 12.773125 -1.11375 12.54625 -1.6875 12.3125 C-4.92123084 11.87550935 -6.39073978 13.18801373 -9 15 C-7.61821263 11.18461696 -5.86310038 8.02708119 -3.5625 4.6875 C-2.96566406 3.80449219 -2.36882813 2.92148437 -1.75390625 2.01171875 C-1.17511719 1.34785156 -0.59632813 0.68398438 0 0 Z " fill="#1E85A7" transform="translate(555,429)"/>
<path d="M0 0 C0.66 0.33 1.32 0.66 2 1 C0.56974806 2.65213589 -0.86945545 4.29652589 -2.3125 5.9375 C-3.11300781 6.85402344 -3.91351563 7.77054687 -4.73828125 8.71484375 C-7 11 -7 11 -10 12 C-10 13.65 -10 15.3 -10 17 C-10.66 17 -11.32 17 -12 17 C-11.67 21.62 -11.34 26.24 -11 31 C-13.7923426 28.2076574 -13.39896441 26.33999976 -13.5 22.4375 C-13.39059739 15.31174302 -11.86396454 11.15938972 -7 6 C-4.74519329 3.83520553 -2.47089835 1.92730072 0 0 Z " fill="#BDBDBD" transform="translate(273,361)"/>
<path d="M0 0 C0.33 0 0.66 0 1 0 C1 9.24 1 18.48 1 28 C2.65 28 4.3 28 6 28 C6 28.99 6 29.98 6 31 C2.04 31 -1.92 31 -6 31 C-6 30.01 -6 29.02 -6 28 C-4.02 28 -2.04 28 0 28 C0 18.76 0 9.52 0 0 Z " fill="#27A8D3" transform="translate(216,431)"/>
<path d="M0 0 C6.6 0 13.2 0 20 0 C20 1.32 20 2.64 20 4 C14.39 4 8.78 4 3 4 C3 3.34 3 2.68 3 2 C2.01 1.34 1.02 0.68 0 0 Z " fill="#1D80A1" transform="translate(342,429)"/>
<path d="M0 0 C0.06058594 0.79664063 0.12117188 1.59328125 0.18359375 2.4140625 C0.69507815 9.04982178 0.69507815 9.04982178 1.6875 15.625 C1.790625 16.40875 1.89375 17.1925 2 18 C1.34 18.66 0.68 19.32 0 20 C-2.95671348 13.47059106 -3.35368021 8.12600133 -3 1 C-1 0 -1 0 0 0 Z " fill="#26A6D0" transform="translate(458,438)"/>
<path d="M0 0 C0.66 0 1.32 0 2 0 C3.625 2.5 3.625 2.5 5 5 C4.34 5 3.68 5 3 5 C2.67 11.27 2.34 17.54 2 24 C1.34 24.33 0.68 24.66 0 25 C0 16.75 0 8.5 0 0 Z " fill="#082731" transform="translate(247,437)"/>
<path d="M0 0 C0.598125 0.226875 1.19625 0.45375 1.8125 0.6875 C1.8125 1.6775 1.8125 2.6675 1.8125 3.6875 C-0.6625 3.1925 -0.6625 3.1925 -3.1875 2.6875 C-3.1875 6.9775 -3.1875 11.2675 -3.1875 15.6875 C-7.8075 15.6875 -12.4275 15.6875 -17.1875 15.6875 C-17.1875 15.3575 -17.1875 15.0275 -17.1875 14.6875 C-13.2275 14.6875 -9.2675 14.6875 -5.1875 14.6875 C-5.249375 12.769375 -5.31125 10.85125 -5.375 8.875 C-5.55802632 3.20118421 -5.55802632 3.20118421 -3.8125 0.78125 C-2.1875 -0.3125 -2.1875 -0.3125 0 0 Z " fill="#4D4D4D" transform="translate(224.1875,393.3125)"/>
<path d="M0 0 C0.33 0 0.66 0 1 0 C1 10.23 1 20.46 1 31 C-0.32 30.67 -1.64 30.34 -3 30 C-3.33 28.35 -3.66 26.7 -4 25 C-2.68 25.33 -1.36 25.66 0 26 C0 17.42 0 8.84 0 0 Z " fill="#2BBAEA" transform="translate(268,430)"/>
<path d="M0 0 C0.66 0 1.32 0 2 0 C2 6.6 2 13.2 2 20 C1.01 19.67 0.02 19.34 -1 19 C-1 18.34 -1 17.68 -1 17 C-1.99 16.67 -2.98 16.34 -4 16 C-3.67 15.34 -3.34 14.68 -3 14 C-1.515 14.99 -1.515 14.99 0 16 C0 10.72 0 5.44 0 0 Z " fill="#323232" transform="translate(423,360)"/>
<path d="M0 0 C0.66 0.33 1.32 0.66 2 1 C1.57742724 2.4835001 1.13643678 3.96176424 0.6875 5.4375 C0.44386719 6.26121094 0.20023437 7.08492188 -0.05078125 7.93359375 C-0.36402344 8.61550781 -0.67726563 9.29742187 -1 10 C-1.99 10.33 -2.98 10.66 -4 11 C-4.33 12.98 -4.66 14.96 -5 17 C-5.33 17 -5.66 17 -6 17 C-6.61398334 10.12338657 -5.15850905 6.46741681 -1 1 C-0.67 0.67 -0.34 0.34 0 0 Z " fill="#1F89AD" transform="translate(298,432)"/>
<path d="M0 0 C-1.75 3.875 -1.75 3.875 -4 5 C-5.54023996 5.06950541 -7.08334988 5.08452357 -8.625 5.0625 C-9.85089844 5.04896484 -9.85089844 5.04896484 -11.1015625 5.03515625 C-12.04128906 5.01775391 -12.04128906 5.01775391 -13 5 C-13.33 3.68 -13.66 2.36 -14 1 C-12.95199219 1.01740234 -12.95199219 1.01740234 -11.8828125 1.03515625 C-10.97273437 1.04417969 -10.06265625 1.05320312 -9.125 1.0625 C-7.76761719 1.07990234 -7.76761719 1.07990234 -6.3828125 1.09765625 C-3.92124681 0.99677241 -2.42285583 0 0 0 Z " fill="#25A0C9" transform="translate(185,457)"/>
<path d="M0 0 C-0.33 0.66 -0.66 1.32 -1 2 C-1.76183594 1.9071875 -2.52367187 1.814375 -3.30859375 1.71875 C-9.87663686 1.25434652 -9.87663686 1.25434652 -15.80078125 3.78125 C-17.99343662 5.76757894 -20.04120193 7.78398602 -22 10 C-22 6.05110317 -20.93875306 4.4023694 -18.3984375 1.453125 C-13.16430001 -1.71804625 -5.92008682 -0.44295186 0 0 Z " fill="#A0A0A0" transform="translate(249,359)"/>
<path d="M0 0 C3.96 0 7.92 0 12 0 C12 0.33 12 0.66 12 1 C8.37 1 4.74 1 1 1 C1 8.59 1 16.18 1 24 C-0.32 23.34 -1.64 22.68 -3 22 C-2.67 21.34 -2.34 20.68 -2 20 C-1.34 20.33 -0.68 20.66 0 21 C0 14.07 0 7.14 0 0 Z " fill="#A5A5A5" transform="translate(425,359)"/>
<path d="M0 0 C4.20626034 1.50223584 5.73900021 4.28550034 8 8 C7.34 9.32 6.68 10.64 6 12 C4.98829382 10.75945552 3.99102203 9.5071298 3 8.25 C2.443125 7.55390625 1.88625 6.8578125 1.3125 6.140625 C0 4 0 4 0 0 Z " fill="#249BC3" transform="translate(257,445)"/>
<path d="M0 0 C0.33 0.99 0.66 1.98 1 3 C-0.670625 3.433125 -0.670625 3.433125 -2.375 3.875 C-6.00291092 4.69241329 -6.00291092 4.69241329 -8 7 C-8.99 7 -9.98 7 -11 7 C-10.8125 5.1875 -10.8125 5.1875 -10 3 C-6.62712264 0.37665094 -4.24348127 -0.36372697 0 0 Z " fill="#249EC6" transform="translate(513,429)"/>
<path d="M0 0 C0.66 0 1.32 0 2 0 C2 4.62 2 9.24 2 14 C2.66 14 3.32 14 4 14 C4 14.99 4 15.98 4 17 C2.68 17 1.36 17 0 17 C0 11.39 0 5.78 0 0 Z " fill="#A8A8A8" transform="translate(218,360)"/>
<path d="M0 0 C1 2 1 2 0.875 5.4375 C0.65061884 8.93834889 0.65061884 8.93834889 2.5 10.9375 C2.995 11.288125 3.49 11.63875 4 12 C3.01 12 2.02 12 1 12 C1 12.66 1 13.32 1 14 C-0.32 13.34 -1.64 12.68 -3 12 C-2.88541307 10.56163249 -2.75790884 9.12429034 -2.625 7.6875 C-2.55539062 6.88699219 -2.48578125 6.08648437 -2.4140625 5.26171875 C-2 3 -2 3 0 0 Z " fill="#1D81A2" transform="translate(547,447)"/>
<path d="M0 0 C1.70349609 0.02320313 1.70349609 0.02320313 3.44140625 0.046875 C6.4375 0.25 6.4375 0.25 9.4375 1.25 C9.4375 1.91 9.4375 2.57 9.4375 3.25 C2.8375 3.25 -3.7625 3.25 -10.5625 3.25 C-6.18664177 -0.03189367 -5.20782896 -0.1184944 0 0 Z " fill="#484848" transform="translate(353.5625,357.75)"/>
<path d="M0 0 C0 3.6840519 -0.01943494 5.97475691 -2.62890625 8.703125 C-3.26699219 9.21359375 -3.90507812 9.7240625 -4.5625 10.25 C-5.20316406 10.77078125 -5.84382813 11.2915625 -6.50390625 11.828125 C-6.99761719 12.21484375 -7.49132812 12.6015625 -8 13 C-8 9.00717059 -6.52191924 7.84668408 -4 4.8125 C-3.2575 3.91144531 -2.515 3.01039063 -1.75 2.08203125 C-1.1725 1.39496094 -0.595 0.70789063 0 0 Z " fill="#0D3B4B" transform="translate(279,201)"/>
<path d="M0 0 C2.97 0.99 5.94 1.98 9 3 C9 3.33 9 3.66 9 4 C6.69 4 4.38 4 2 4 C2 4.66 2 5.32 2 6 C4.64 6 7.28 6 10 6 C10 6.33 10 6.66 10 7 C8.54257537 7.08096803 7.08387193 7.13917774 5.625 7.1875 C4.81289063 7.22230469 4.00078125 7.25710938 3.1640625 7.29296875 C2.44992187 7.19628906 1.73578125 7.09960938 1 7 C0.34 6.01 -0.32 5.02 -1 4 C-0.67 2.68 -0.34 1.36 0 0 Z " fill="#1D7FA0" transform="translate(460,455)"/>
<path d="M0 0 C1 4 1 4 0.00390625 5.703125 C-1.33072917 7.13541667 -2.66536458 8.56770833 -4 10 C-5.32 9.34 -6.64 8.68 -8 8 C-5.36 5.36 -2.72 2.72 0 0 Z " fill="#2293B9" transform="translate(514,445)"/>
<path d="M0 0 C0.99 0 1.98 0 3 0 C2.34 5.61 1.68 11.22 1 17 C0.67 17 0.34 17 0 17 C-0.06058594 16.22914063 -0.12117188 15.45828125 -0.18359375 14.6640625 C-0.26738281 13.66117187 -0.35117187 12.65828125 -0.4375 11.625 C-0.51871094 10.62726563 -0.59992188 9.62953125 -0.68359375 8.6015625 C-0.84965626 6.02072387 -0.84965626 6.02072387 -2 4 C-1.0625 1.875 -1.0625 1.875 0 0 Z " fill="#1F89AC" transform="translate(458,433)"/>
<path d="M0 0 C0.99 0.33 1.98 0.66 3 1 C3.6875 3.0625 3.6875 3.0625 4 5 C3.01 4.67 2.02 4.34 1 4 C1 10.6 1 17.2 1 24 C0.67 24 0.34 24 0 24 C0 16.08 0 8.16 0 0 Z " fill="#323232" transform="translate(410,384)"/>
<path d="M0 0 C0.66 0 1.32 0 2 0 C2.33 0.99 2.66 1.98 3 3 C2.01 4.485 2.01 4.485 1 6 C0.61500109 7.65549531 0.27206865 9.3222433 0 11 C-0.66 11 -1.32 11 -2 11 C-2.05399736 9.54207116 -2.09279177 8.08357288 -2.125 6.625 C-2.15980469 5.40683594 -2.15980469 5.40683594 -2.1953125 4.1640625 C-2 2 -2 2 0 0 Z " fill="#249CC4" transform="translate(545,444)"/>
<path d="M0 0 C0.99 0.33 1.98 0.66 3 1 C3 1.66 3 2.32 3 3 C2.40832031 2.96519531 1.81664062 2.93039062 1.20703125 2.89453125 C-3.87519519 2.72042561 -6.71240348 3.01167515 -11 6 C-11.66 5.67 -12.32 5.34 -13 5 C-8.60249607 0.70975226 -6.39457166 -0.72391377 0 0 Z " fill="#A7A7A7" transform="translate(289,370)"/>
<path d="M0 0 C1.33332095 2.6666419 0.67102033 4.16680303 0 7 C-0.66 7 -1.32 7 -2 7 C-1.67 11.62 -1.34 16.24 -1 21 C-3.84413001 18.15586999 -3.30005258 16.14992841 -3.3125 12.1875 C-3.32925781 10.96417969 -3.34601563 9.74085938 -3.36328125 8.48046875 C-2.98183496 4.82596724 -2.12734018 2.94684326 0 0 Z " fill="#949494" transform="translate(263,371)"/>
<path d="M0 0 C0 0.33 0 0.66 0 1 C-1.27875 1.0825 -2.5575 1.165 -3.875 1.25 C-6.06542835 1.47169096 -6.06542835 1.47169096 -8 2 C-9.25827123 3.84982472 -9.25827123 3.84982472 -10 6 C-12.625 7.75 -12.625 7.75 -15 9 C-13.55536047 5.62917442 -11.75336875 3.41962708 -9 1 C-5.8035914 -0.06546953 -3.34252724 -0.07427838 0 0 Z " fill="#505050" transform="translate(356,371)"/>
<path d="M0 0 C-0.33 1.32 -0.66 2.64 -1 4 C-4.3 4 -7.6 4 -11 4 C-11 3.34 -11 2.68 -11 2 C-9.5422647 1.664061 -8.08378894 1.33133376 -6.625 1 C-5.40683594 0.7215625 -5.40683594 0.7215625 -4.1640625 0.4375 C-2 0 -2 0 0 0 Z " fill="#27A9D5" transform="translate(473,457)"/>
<path d="M0 0 C2.53585299 1.01434119 3.78136795 1.65018872 5.25 4 C6 6 6 6 6 8 C6.33 8.66 6.66 9.32 7 10 C4.53199953 8.84826645 2.95216435 7.95216435 1 6 C0.60235737 4.01178687 0.26224651 2.01055661 0 0 Z " fill="#2191B6" transform="translate(295,451)"/>
<path d="M0 0 C0.33 0.99 0.66 1.98 1 3 C5.62 3 10.24 3 15 3 C15 3.33 15 3.66 15 4 C9.06 4 3.12 4 -3 4 C-2.01 2.68 -1.02 1.36 0 0 Z " fill="#2BBBEB" transform="translate(417,457)"/>
<path d="M0 0 C4.48525648 0.656379 8.66914029 1.70074209 13 3 C13 3.33 13 3.66 13 4 C11.3973218 4.10824843 9.79254252 4.18570645 8.1875 4.25 C7.29417969 4.29640625 6.40085937 4.3428125 5.48046875 4.390625 C3 4 3 4 1.17578125 1.984375 C0.78777344 1.32953125 0.39976562 0.6746875 0 0 Z " fill="#28AEDB" transform="translate(299,457)"/>
<path d="M0 0 C1.65 0 3.3 0 5 0 C5 1.98 5 3.96 5 6 C3.68 5.67 2.36 5.34 1 5 C0.67 3.35 0.34 1.7 0 0 Z " fill="#29B3E1" transform="translate(264,455)"/>
<path d="M0 0 C1.9375 0.375 1.9375 0.375 4 1 C5.35439668 3.70879335 5.06501451 6.00933268 5 9 C4.34 9 3.68 9 3 9 C2 6 1 3 0 0 Z " fill="#28AFDC" transform="translate(182,446)"/>
<path d="M0 0 C-5.445 2.475 -5.445 2.475 -11 5 C-10.67 3.68 -10.34 2.36 -10 1 C-5.95868794 -0.88594563 -4.41169694 -1.10292424 0 0 Z " fill="#28AEDB" transform="translate(310,431)"/>
<path d="M0 0 C0.99 0.33 1.98 0.66 3 1 C3 2.32 3 3.64 3 5 C-2.94 4.01 -2.94 4.01 -9 3 C-9 2.67 -9 2.34 -9 2 C-6.03 2 -3.06 2 0 2 C0 1.34 0 0.68 0 0 Z " fill="#186C87" transform="translate(183,431)"/>
<path d="M0 0 C0.66 0.33 1.32 0.66 2 1 C1.07038578 2.15224028 0.1309875 3.29659176 -0.8125 4.4375 C-1.59560547 5.39462891 -1.59560547 5.39462891 -2.39453125 6.37109375 C-4 8 -4 8 -7 9 C-5.44499019 5.18315774 -2.96404505 2.80804268 0 0 Z " fill="#BBBBBB" transform="translate(338,363)"/>
<path d="M0 0 C0.99 0.495 0.99 0.495 2 1 C2 3.97 2 6.94 2 10 C2.66 10 3.32 10 4 10 C3.67 10.99 3.34 11.98 3 13 C2.34 13 1.68 13 1 13 C-0.00496852 9.98509443 -0.10335303 7.95818308 -0.0625 4.8125 C-0.05347656 3.91144531 -0.04445313 3.01039063 -0.03515625 2.08203125 C-0.02355469 1.39496094 -0.01195312 0.70789063 0 0 Z " fill="#196E8B" transform="translate(558,447)"/>
<path d="M0 0 C1.32 0.33 2.64 0.66 4 1 C4 2.32 4 3.64 4 5 C3.01 5.33 2.02 5.66 1 6 C0 5 0 5 -0.0625 2.4375 C-0.041875 1.633125 -0.02125 0.82875 0 0 Z " fill="#27AAD6" transform="translate(245,430)"/>
<path d="M0 0 C1.134375 0.020625 2.26875 0.04125 3.4375 0.0625 C3.4375 0.3925 3.4375 0.7225 3.4375 1.0625 C2.07625 1.495625 2.07625 1.495625 0.6875 1.9375 C-1.88452908 2.82781776 -4.17596766 3.77744413 -6.5625 5.0625 C-4.14811644 0.07277397 -4.14811644 0.07277397 0 0 Z " fill="#092934" transform="translate(466.5625,432.9375)"/>
<path d="M0 0 C0.66 0.33 1.32 0.66 2 1 C1.67 2.32 1.34 3.64 1 5 C-0.32 5.33 -1.64 5.66 -3 6 C-2.42655063 3.13275314 -2.1385485 2.1385485 0 0 Z " fill="#208DB1" transform="translate(505,430)"/>
<path d="M0 0 C1.670625 0.061875 1.670625 0.061875 3.375 0.125 C3.375 1.115 3.375 2.105 3.375 3.125 C0.405 2.795 -2.565 2.465 -5.625 2.125 C-3.625 0.125 -3.625 0.125 0 0 Z " fill="#27AAD5" transform="translate(179.625,429.875)"/>
</svg>
